<svg version="1.2" xmlns="http://www.w3.org/2000/svg" viewBox="0 0 1682 367" width="1682" height="367">
	<style>
		.s0 { fill: #000000 } 
		.s1 { fill: #ffc73f } 
		.s2 { fill: #f3582c } 
		.s3 { fill: #ff9c33 } 
	</style>
	<path class="s0" d="m950.33 288.37h-55.17l-2.69-78.47-0.33-13.04q-0.57-18.15-0.57-27.63 0-22.65 1.8-45.39l-28.77 142.69h-53.05l-30.64-142.69q2.76 35.46 2.77 62.43-0.01 15.4-0.33 23.63l-2.44 78.47h-55.17l15.48-210.65h69.68l28.19 139.76 25.51-139.76h70z"/>
	<path class="s0" d="m1027.26 126.86v161.51h-53.95v-161.51zm-26.97-87.04q13.6 0 22.24 8.56 8.63 8.49 8.64 21.19-0.01 12.72-8.64 21.19-8.64 8.48-22.24 8.47-13.63 0.01-22.25-8.47-8.64-8.47-8.64-21.19 0-12.7 8.64-21.19 8.62-8.56 22.25-8.56z"/>
	<path class="s0" d="m1131.54 77.72q42.45 0 65.93 17.76 23.47 17.7 23.47 51.99 0 35.8-22.74 54.44-22.74 18.58-61.2 18.58h-21.51v67.88h-56.07v-210.65zm0.33 102.76q15.7 0 23.71-7.82 8.07-7.89 8.07-24.94 0-30.56-33.01-30.56h-15.15v63.32z"/>
	<path class="s0" d="m1330.93 72.26q45.79 0 71.23 29.09 25.42 29.1 25.42 81.57 0 34.24-11.41 59.25-11.34 25.03-33.16 38.38-21.76 13.27-52.08 13.28-45.8 0-71.14-29.09-25.27-29.08-25.26-81.82-0.01-34.21 11.33-59.08 11.39-24.84 33.08-38.22 21.67-13.36 51.99-13.36zm0 40.34q-19.73 0-29.01 16.38-9.22 16.38-9.21 53.94 0 37.59 9.38 54.11 9.44 16.47 28.84 16.47 20.05 0.01 29.1-16.3 9.11-16.38 9.12-54.28-0.01-37.56-9.12-53.94-9.05-16.38-29.1-16.38z"/>
	<path class="s0" d="m1524.55 72.26q23.96 0 42.29 7.01 18.33 6.94 32.93 20.94l-25.19 29.66q-21.84-17.27-45.79-17.27-12.41 0.01-18.91 4.72-6.53 4.65-6.52 13.12-0.01 6.11 3.34 10.03 3.34 3.91 11.17 7.58 7.88 3.67 24.93 9.12 32.34 10.27 47.35 25.92 15.07 15.57 15.08 43.19-0.01 19.98-10.35 35.28-10.27 15.34-29.83 23.8-19.56 8.47-45.96 8.47-50.29 0.01-82.06-30.64l27.54-30.56q25.18 20.63 52.4 20.62 14.25 0.01 22.17-6.19 7.89-6.27 7.9-16.54-0.01-7.34-3.1-11.98-3.02-4.72-10.75-8.48-7.67-3.81-22.58-8.39-35.78-11.16-50.36-26.9-14.51-15.8-14.5-39.76-0.01-18.74 10.18-33.01 10.17-14.24 28.2-22 17.99-7.74 40.42-7.74z"/>
	<path class="s1" d="m159.44 176.65h-96.22l-48.22 83.51 48.22 83.33h96.22l48.21-83.33z"/>
	<path class="s2" d="m369.8 207.48h0.02l-3.24-5.63-14.51-25.2h-0.06l-64.81-112.17h-0.02l-31.51-54.48h-96.23l-48.2 83.33 32.44 56.08 79.41 137.54 32.58 56.54h96.4l48.02-83.33z"/>
	<path class="s3" d="m560 203.42l0.12-0.08-82.43-143-0.18 0.12-29.2-50.46h-96.24l-48.2 83.33 48.2 83.32h0.04l48.14 83.27-0.16 0.24 48.22 83.33h96.23l48.2-83.33z"/>
</svg>